<svg width="25" height="25" viewBox="0 0 25 25" fill="none" xmlns="http://www.w3.org/2000/svg">
<g clip-path="url(#clip0_286_994)">
<path d="M19 4.20947H5C4.20435 4.20947 3.44129 4.52554 2.87868 5.08815C2.31607 5.65076 2 6.41382 2 7.20947V17.2095C2 18.0051 2.31607 18.7682 2.87868 19.3308C3.44129 19.8934 4.20435 20.2095 5 20.2095H19C19.7956 20.2095 20.5587 19.8934 21.1213 19.3308C21.6839 18.7682 22 18.0051 22 17.2095V7.20947C22 6.41382 21.6839 5.65076 21.1213 5.08815C20.5587 4.52554 19.7956 4.20947 19 4.20947ZM19 6.20947L12.5 10.6795C12.348 10.7672 12.1755 10.8134 12 10.8134C11.8245 10.8134 11.652 10.7672 11.5 10.6795L5 6.20947H19Z" fill="black"/>
</g>
<defs>
<clipPath id="clip0_286_994">
<rect width="24" height="24" fill="white" transform="translate(0.5 0.5)"/>
</clipPath>
</defs>
</svg>
