<svg width="25" height="25" viewBox="0 0 25 25" fill="none" xmlns="http://www.w3.org/2000/svg">
<path d="M7.97804 4.20947C7.61297 4.20945 7.25214 4.28772 6.91989 4.43901C6.58764 4.5903 6.2917 4.81108 6.05204 5.08647C4.23304 6.90947 3.69904 8.96047 4.15304 11.0235C4.59304 13.0185 5.93104 14.9165 7.60904 16.5955C9.28904 18.2745 11.186 19.6135 13.179 20.0545C15.241 20.5105 17.294 19.9815 19.119 18.1695C19.3956 17.9296 19.6174 17.6331 19.7695 17.3001C19.9215 16.9671 20.0002 16.6053 20.0003 16.2392C20.0004 15.8731 19.9219 15.5113 19.77 15.1782C19.6181 14.8451 19.3965 14.5485 19.12 14.3085L17.91 13.0985C17.4058 12.5944 16.722 12.3113 16.009 12.3113C15.2961 12.3113 14.6123 12.5944 14.108 13.0985L13.491 13.7165C13.4162 13.7913 13.3273 13.8507 13.2295 13.8912C13.1317 13.9318 13.0269 13.9526 12.921 13.9526C12.8152 13.9526 12.7103 13.9318 12.6125 13.8912C12.5147 13.8507 12.4259 13.7913 12.351 13.7165L10.497 11.8615C10.3461 11.7102 10.2613 11.5052 10.2613 11.2915C10.2613 11.0778 10.3461 10.8728 10.497 10.7215L11.115 10.1015C11.6186 9.59679 11.9015 8.91294 11.9015 8.19997C11.9015 7.487 11.6186 6.80315 11.115 6.29847L9.90504 5.08747C9.66527 4.81188 9.3692 4.5909 9.03678 4.43944C8.70436 4.28798 8.34333 4.20956 7.97804 4.20947Z" fill="black"/>
</svg>
