<svg width="156" height="34" viewBox="0 0 156 34" fill="none" xmlns="http://www.w3.org/2000/svg">
<path d="M15.0497 11.3853L10.9521 27.0695H0.941406L2.97128 19.3535L15.0497 11.3853Z" fill="#737373"/>
<path d="M36.3571 6.40479C38.7022 6.41739 40.3538 6.93432 41.2868 7.98078C42.2198 9.02724 42.4467 10.515 41.9298 12.4692C41.5894 13.8056 40.8959 15.0286 39.9251 15.9994C38.9165 17.0081 37.6809 17.7393 36.3066 18.1176C37.3531 18.3571 37.9961 19.101 38.1978 20.3744L38.2357 20.6518L38.9921 27.0692H34.3272L33.5455 20.16C33.5329 19.9331 33.4699 19.7062 33.3564 19.5044C33.2429 19.3027 33.079 19.1388 32.8899 19.0127C32.499 18.811 32.0704 18.7101 31.6291 18.6975H31.3643H28.4897L26.2959 27.0566H21.9336L27.355 6.40479H36.3571ZM155.868 11.8136L150.32 19.807L143.777 29.2882L143.726 29.3386L142.264 31.4568L142.213 31.5324L142.15 31.6333L140.889 33.4488H136.552L141.621 26.3001L139.326 12.3179H143.827L144.962 21.4334L150.459 13.6291L150.535 13.5157L150.623 13.3896L150.711 13.2761L151.392 11.8262H155.868V11.8136ZM117.439 12.9231C118.271 13.6291 118.813 14.5999 119.002 15.6842C119.229 17.0333 119.128 18.4328 118.737 19.744C118.372 21.1939 117.754 22.5556 116.897 23.7659C116.115 24.8754 115.106 25.7958 113.934 26.4514C112.824 27.0566 111.601 27.3718 110.34 27.3718C109.445 27.4096 108.563 27.1827 107.794 26.7288C107.201 26.3758 106.747 25.8336 106.495 25.1906L106.419 24.9385L104.188 33.4488H99.8633L104.289 16.5542L104.314 16.4785L104.326 16.4029L105.411 12.3053H109.634L108.916 14.6756L108.903 14.7765C109.521 13.8939 110.353 13.1752 111.311 12.7088C112.269 12.2044 113.329 11.9523 114.4 11.9523C115.472 11.8892 116.556 12.2423 117.439 12.9231ZM112.219 15.2682C111.715 15.2556 111.21 15.3564 110.731 15.5455C110.265 15.7347 109.836 16.0246 109.471 16.3777C108.613 17.2602 108.021 18.3823 107.756 19.5801C107.378 20.9796 107.403 22.0386 107.781 22.7699C108.159 23.5011 108.878 23.8794 109.95 23.8794C110.971 23.9046 111.954 23.5138 112.698 22.7951C113.53 21.9252 114.11 20.8409 114.375 19.6557C114.741 18.2815 114.715 17.1846 114.337 16.4155C113.959 15.6464 113.253 15.2682 112.219 15.2682ZM131.635 12.5953C132.215 12.9609 132.669 13.5031 132.921 14.1461L133.01 14.3856L133.564 12.2927H137.801L133.917 27.044H129.668L130.236 24.8628C129.593 25.6319 128.786 26.2371 127.878 26.6531C126.996 27.0566 126.05 27.2709 125.092 27.2709C123.982 27.3214 122.873 27.0062 121.965 26.3379C121.133 25.6823 120.578 24.7241 120.402 23.6777C120.175 22.3412 120.25 20.9796 120.641 19.6809C121.019 18.231 121.65 16.8568 122.52 15.6338C123.314 14.5117 124.335 13.5661 125.52 12.8853C126.605 12.2549 127.84 11.9145 129.088 11.9145C129.996 11.8892 130.879 12.1162 131.635 12.5953ZM129.441 15.306C128.925 15.306 128.408 15.4069 127.941 15.6086C127.462 15.8103 127.033 16.1003 126.668 16.4659C125.823 17.3611 125.218 18.4706 124.953 19.6809C124.6 21.0426 124.6 22.0765 125.003 22.8203C125.394 23.5642 126.126 23.9172 127.21 23.9172C127.714 23.9298 128.219 23.829 128.698 23.6398C129.177 23.4507 129.593 23.1607 129.958 22.8077C130.702 22.0134 131.244 21.0678 131.547 20.0087L131.648 19.6179C132.026 18.2184 132.014 17.1467 131.61 16.4281C131.219 15.6842 130.501 15.306 129.441 15.306ZM103.23 12.1414L103.507 12.2549L102.423 16.2768C101.805 15.949 101.124 15.7851 100.443 15.7851C99.4094 15.7473 98.4007 16.0877 97.5812 16.7307C96.8752 17.3359 96.3583 18.1428 96.0935 19.0253L96.0052 19.3657L93.988 27.0692H89.676L93.5845 12.3179H97.8334L97.2786 14.4865C97.8082 13.7552 98.489 13.1626 99.2581 12.7214C100.115 12.2297 101.074 11.9775 102.057 11.9775C102.448 11.9523 102.851 12.0027 103.23 12.1414ZM87.3058 12.8474C88.264 13.4526 88.9574 14.4108 89.2222 15.5203C89.5374 16.8568 89.4869 18.2689 89.0835 19.5801C88.7052 21.0678 88.037 22.4547 87.0914 23.6398C86.1963 24.7872 85.0615 25.6949 83.7629 26.3127C82.4391 26.9305 81.0018 27.2457 79.5393 27.2331C78.0011 27.2331 76.7403 26.9305 75.7569 26.3127C74.7861 25.7075 74.0926 24.7493 73.8153 23.6398C73.5127 22.3034 73.5631 20.8913 73.954 19.5801C74.3322 18.105 75.0004 16.7181 75.946 15.5203C76.8412 14.3856 77.9885 13.4652 79.2997 12.8474C80.6362 12.2297 82.0987 11.9018 83.5738 11.9271C84.8724 11.864 86.171 12.1918 87.3058 12.8474ZM82.6912 15.2556C81.67 15.243 80.6866 15.6338 79.9427 16.3398C79.1736 17.0711 78.5937 18.1428 78.228 19.5801C77.4716 22.4673 78.2028 23.9046 80.4218 23.9046C81.4305 23.9298 82.4013 23.539 83.1325 22.8329C83.889 22.1143 84.4438 21.03 84.822 19.5801C85.2002 18.1554 85.2128 17.0837 84.8346 16.3398C84.469 15.596 83.7503 15.2556 82.6912 15.2556ZM73.9287 12.3053L73.1723 15.2303L63.6533 23.6398H71.2937L70.3859 27.0818H57.7401L58.5344 24.0433L67.9021 15.7599H60.7787L61.6864 12.3179H73.9287V12.3053ZM52.5835 12.5953C53.1635 12.9609 53.6173 13.5031 53.8695 14.1461L53.9578 14.3856L54.5125 12.2927H58.7614L54.8907 27.044H50.6419L51.2092 24.8628C50.5662 25.6193 49.7719 26.2245 48.8768 26.6405C47.9816 27.0566 47.0108 27.2709 46.0148 27.2709C44.9053 27.3214 43.821 26.9935 42.9258 26.3379C42.0937 25.6823 41.5389 24.7241 41.3624 23.6777C41.1355 22.3412 41.2111 20.9796 41.602 19.6809C41.9676 18.231 42.6106 16.8568 43.4806 15.6338C44.2749 14.5117 45.2961 13.5661 46.4686 12.8853C47.5529 12.2549 48.7885 11.9271 50.0367 11.9271C50.9445 11.9018 51.827 12.1288 52.5835 12.5953ZM50.4023 15.306C49.8854 15.306 49.3811 15.4069 48.902 15.6086C48.4229 15.8103 47.9942 16.1003 47.6286 16.4659C46.7712 17.3611 46.1787 18.4706 45.9139 19.6809C45.5609 21.0426 45.5735 22.0765 45.9643 22.8203C46.3552 23.5642 47.0864 23.9172 48.1707 23.9172C48.675 23.9298 49.1793 23.829 49.6585 23.6398C50.1249 23.4507 50.5662 23.1607 50.9192 22.8077C51.6631 22.026 52.2179 21.0678 52.5078 20.0087L52.6087 19.6179C52.9743 18.2184 52.9365 17.172 52.5709 16.4281C52.18 15.6842 51.4488 15.306 50.4023 15.306ZM34.7937 9.84675H30.7465L29.3218 15.243H33.369C34.6424 15.243 35.651 15.0286 36.3319 14.5873C37.0505 14.1208 37.5674 13.3896 37.7566 12.5322C38.0087 11.6245 37.8952 10.931 37.4161 10.4898C36.937 10.0737 36.0671 9.84675 34.7937 9.84675Z" fill="#737373"/>
<path d="M24.1394 0L17.0285 27.0692H12.1493L16.9529 8.7373L9.58984 13.5914L10.9011 8.76252L24.1394 0Z" fill="#737373"/>
</svg>
