<svg width="19" height="14" viewBox="0 0 19 14" fill="none" xmlns="http://www.w3.org/2000/svg">
<path fill-rule="evenodd" clip-rule="evenodd" d="M13.271 7.43799L9.85839 10.0338C9.80987 10.0298 9.76135 10.0258 9.71283 10.0258C8.99715 10.0258 8.41895 10.604 8.41895 11.3196C8.41895 12.0353 8.99715 12.6135 9.71283 12.6135C10.4285 12.6135 11.0067 12.0353 11.0067 11.3196C11.0067 11.2711 11.0027 11.2226 10.9986 11.1741L13.5945 7.76146L13.271 7.43799Z" fill="#651FFF"/>
<path fill-rule="evenodd" clip-rule="evenodd" d="M9.71245 0.968506C4.71078 0.968506 0.655273 5.02402 0.655273 10.0257C0.655273 11.4166 0.970657 12.7307 1.52864 13.9073H2.9883C2.36562 12.8318 2.00981 11.6188 1.95724 10.3491H3.24304V9.70221H1.95724C2.00576 8.53771 2.30902 7.4177 2.8387 6.4109L3.95063 7.05379L4.2741 6.49176L3.16217 5.85291C3.46138 5.38388 3.8172 4.93911 4.22154 4.53477C4.63396 4.12639 5.08278 3.76653 5.5599 3.46327L6.19875 4.56711L6.76078 4.24364L6.12192 3.1398C7.12468 2.61416 8.23257 2.319 9.38898 2.27047V3.55627H10.0359V2.27047C11.1923 2.319 12.3002 2.61821 13.303 3.1398L12.6682 4.24364L13.2302 4.56711L13.869 3.46327C14.3462 3.76653 14.795 4.12639 15.2074 4.53477C15.6117 4.93911 15.9635 5.37983 16.2668 5.85291L15.1589 6.49176L15.4824 7.05379L16.5943 6.4109C17.124 7.4177 17.4272 8.53771 17.4757 9.70221H16.1819V10.3491H17.4677C17.4151 11.6188 17.0593 12.8318 16.4366 13.9073H17.8963C18.4542 12.7307 18.7696 11.4166 18.7696 10.0257C18.7696 5.02402 14.7141 0.968506 9.71245 0.968506Z" fill="#651FFF"/>
</svg>
