<svg width="124" height="90" viewBox="0 0 124 90" fill="none" xmlns="http://www.w3.org/2000/svg">
<g clip-path="url(#clip0_547_112)">
<path d="M102.175 0.851421C102.075 0.939322 102 1.4008 102 1.86229V2.69735H100.875C100.075 2.69735 99.75 2.78525 99.75 3.005C99.75 3.37858 100.3 3.57636 101.25 3.57636C101.925 3.57636 101.975 3.62031 101.925 4.45537C101.9 4.91685 101.975 5.37833 102.05 5.46624C102.4 5.77389 102.75 5.26846 102.75 4.4334V3.57636H103.825C105.025 3.57636 105.275 3.46648 105.075 3.005C105 2.80722 104.55 2.69735 103.875 2.69735H102.775L102.825 1.79636C102.875 0.939322 102.575 0.521791 102.175 0.851421Z" fill="black"/>
<path d="M53.5746 3.68649C52.7496 3.99415 52.5496 4.32378 52.9746 4.54353C53.0996 4.60946 53.6746 4.52155 54.2746 4.34575C55.6246 3.90625 56.4746 4.08205 57.3996 4.91711C58.4996 5.94995 59.3996 6.27958 60.5996 6.12575C61.8496 5.94995 64.2496 4.78526 64.2496 4.34575C64.2496 3.88427 63.9996 3.92822 62.3746 4.67538C60.3496 5.62032 59.5496 5.55439 57.9996 4.34575C56.8746 3.46674 56.5996 3.35686 55.5496 3.35686C54.8996 3.37884 53.9996 3.51069 53.5746 3.68649Z" fill="black"/>
<path d="M82.0996 5.53215C79.7496 6.78475 80.7746 10.1689 83.5246 10.1689C85.7996 10.1689 87.2246 8.5208 86.4246 6.80672C85.6746 5.2245 83.7246 4.65314 82.0996 5.53215ZM85.2246 6.56499C85.9496 7.37808 85.8746 8.10327 84.9996 8.89438C84.3496 9.44376 84.0996 9.53166 83.4246 9.42178C80.9996 9.00425 81.2996 5.99364 83.7746 5.99364C84.4996 5.99364 84.8246 6.12549 85.2246 6.56499Z" fill="black"/>
<path d="M31.3502 14.7622C29.6502 15.6852 29.3502 17.6849 30.7502 18.9156C32.1252 20.1242 34.3502 19.9484 35.4252 18.542C36.1252 17.619 36.1502 16.6521 35.5002 15.7291C34.6002 14.4106 32.8002 13.9931 31.3502 14.7622ZM34.3752 15.7731C35.6752 16.8938 34.7502 18.9595 32.9502 18.9595C31.9502 18.9595 30.7502 17.9047 30.7502 17.0257C30.7502 15.4435 33.1002 14.6304 34.3752 15.7731Z" fill="black"/>
<path d="M83.8754 16.6958C78.5754 17.0035 71.3004 18.1242 66.8254 19.3109C56.2004 22.1457 47.4754 28.6724 38.3004 40.6709C35.9504 43.7474 35.4504 44.5166 35.7504 44.6704C35.9504 44.8022 36.2504 44.8901 36.4254 44.8901C36.6004 44.8901 37.8004 43.4837 39.1004 41.7477C42.7004 37.023 45.7754 33.6608 49.5004 30.3645C57.0004 23.7499 64.0004 20.4536 72.2504 19.6185C77.7754 19.0691 83.6754 20.4975 86.9004 23.1785C89.2754 25.1563 89.2754 25.0464 86.9254 27.9911C84.1254 31.4632 83.9754 31.639 83.8254 31.3314C83.4754 30.5183 81.0004 28.0351 79.7504 27.222C77.4254 25.7057 75.3254 25.0684 72.4004 24.9366C69.4004 24.8267 67.7504 25.0904 65.3254 26.1452C62.2754 27.4417 59.7754 29.925 58.5254 32.9136C57.4504 35.3968 57.5754 39.1546 58.8004 41.6598C59.5754 43.264 59.9504 42.6267 59.2504 40.8906C58.4504 38.9788 58.2754 35.7704 58.8754 33.9904C60.5504 28.8482 65.4754 25.5079 71.3754 25.4859C77.3254 25.442 82.0004 28.4306 84.0004 33.5509C84.5504 35.0232 85.1004 35.1771 84.8754 33.8366C84.7004 32.8477 84.7254 32.7817 86.5504 30.5622C87.5754 29.3096 88.7254 27.9032 89.0754 27.4417L89.7254 26.5627L90.1004 27.3319C91.0254 29.2877 91.3254 30.9358 91.3254 34.1222C91.3004 36.8472 91.2004 37.6383 90.6504 39.4842C90.3004 40.6929 90.0504 41.7257 90.1254 41.7696C90.3754 41.9894 91.4504 41.5719 91.5754 41.2203C91.6254 41.0005 92.0254 39.7919 92.4504 38.5173C94.1254 33.463 95.1754 27.7054 95.4254 21.9919C95.6004 18.1462 95.5004 17.8166 93.9254 16.9815C93.2004 16.5859 92.7004 16.542 89.1254 16.5859C86.9254 16.6079 84.5754 16.6519 83.8754 16.6958ZM93.9754 22.8709C93.8004 25.464 93.1004 31.0237 92.9004 31.5951C92.8504 31.705 92.7504 31.4193 92.6504 30.9358C92.5504 30.4524 92.0754 28.958 91.6004 27.5956L90.7004 25.1343L91.7004 23.64C92.2504 22.8269 93.0004 21.6183 93.3504 20.981C93.7254 20.3217 94.0754 19.8383 94.1004 19.8822C94.1504 19.9042 94.0754 21.2667 93.9754 22.8709Z" fill="black"/>
<path d="M47.1253 18.5635C45.8003 19.1788 45.5753 20.6072 46.6503 21.3544C48.3253 22.519 50.3753 21.0907 49.6003 19.2887C49.4503 18.959 48.2503 18.2998 47.8253 18.2998C47.7253 18.2998 47.4003 18.4316 47.1253 18.5635ZM48.6003 19.5304C49.0753 19.9479 49.1003 20.0798 48.6753 20.5852C48.1503 21.2225 47.1503 20.9588 47.0503 20.1897C46.9253 19.2447 47.8503 18.8492 48.6003 19.5304Z" fill="black"/>
<path d="M111.275 22.3874C110.975 22.717 110.75 23.1346 110.75 23.3543C110.75 24.1015 111.725 24.8926 112.625 24.8926C113.525 24.8926 114.5 24.1015 114.5 23.3543C114.5 22.6071 113.525 21.816 112.625 21.816C112.025 21.816 111.65 21.9699 111.275 22.3874ZM113.325 22.9368C113.7 23.4642 113.35 24.0136 112.65 24.0136C111.925 24.0136 111.55 23.2884 112.025 22.7829C112.4 22.3874 112.975 22.4533 113.325 22.9368Z" fill="black"/>
<path d="M69.6245 26.453C69.3745 26.7827 69.6495 26.9585 70.1245 26.7827C70.3495 26.7167 70.4495 26.5629 70.3745 26.431C70.1745 26.1454 69.8245 26.1454 69.6245 26.453Z" fill="black"/>
<path d="M71.8252 26.365C71.1252 26.5848 71.5752 26.8265 72.9502 26.9584C73.7252 27.0463 75.0502 27.3539 75.8752 27.6616C77.7252 28.3648 78.5002 28.5186 78.5002 28.2329C78.5002 27.5737 72.9002 26.0134 71.8252 26.365Z" fill="black"/>
<path d="M68.0496 29.3095C66.2996 29.9029 63.9746 31.8147 63.0996 33.375C62.6246 34.232 62.3996 35.0231 62.3246 36.1658L62.2246 37.748L62.7746 37.0888C63.8496 35.8362 65.1496 34.8034 65.8496 34.6495C66.2246 34.5616 66.9746 34.6276 67.4996 34.7814C68.2496 35.0011 68.6246 35.0011 69.3996 34.7594C69.9746 34.5836 71.4246 34.4737 72.8746 34.4737C74.9496 34.4957 75.6746 34.5836 77.0996 35.0671C78.6746 35.5725 78.8996 35.5945 79.5246 35.3088C80.5746 34.8473 80.5996 34.6495 79.8996 33.375C79.0246 31.7927 77.2746 30.2984 75.3746 29.5073C73.9746 28.914 73.5496 28.848 71.5996 28.87C69.9996 28.87 68.9996 29.0019 68.0496 29.3095Z" fill="black"/>
<path d="M27.6751 32.7378C27.5751 32.8037 27.5001 33.1993 27.5001 33.5729C27.5001 34.2321 27.4251 34.2981 26.4751 34.4079C25.9251 34.4739 25.4001 34.5837 25.3251 34.6277C25.0251 34.9134 25.6001 35.221 26.3751 35.221C27.2001 35.221 27.2251 35.243 27.3001 36.144C27.4001 37.4405 28.1001 37.4625 28.2001 36.166C28.2751 35.243 28.2751 35.243 29.3251 35.1771C30.6251 35.0892 30.6001 34.7156 29.3251 34.5618C28.4001 34.4519 28.3751 34.4079 28.3001 33.5069C28.2251 32.6279 28.0501 32.4082 27.6751 32.7378Z" fill="black"/>
<path d="M103.5 34.2763C103.5 35.3091 104.2 36.6496 105.2 37.6824C105.8 38.2538 105.9 38.5175 105.7 38.6933C105.475 38.8911 105.55 38.957 106.05 38.957C106.4 38.957 107.175 39.1108 107.75 39.2866C109.275 39.7481 110.15 39.7042 110.6 39.1328C111.775 37.6824 109.9 36.6716 107.6 37.5286C106.75 37.8363 106.675 37.8143 106.125 37.3308C105.375 36.6716 104.625 35.3311 104.4 34.2763C104.3 33.7708 104.075 33.4632 103.875 33.4632C103.6 33.4632 103.5 33.7049 103.5 34.2763ZM110 38.4076C110 38.7592 108.925 38.8691 108.15 38.6054C107.475 38.3856 107.975 38.078 109.025 38.078C109.725 38.078 110 38.1659 110 38.4076Z" fill="black"/>
<path d="M11.925 36.8032C10.85 37.7261 9.97498 39.0666 9.09998 41.1103C8.54998 42.4508 8.37498 42.6486 8.07498 42.4288C7.34998 41.9234 6.94998 40.8906 7.07498 39.9237C7.14998 39.1765 7.09998 39.0227 6.82498 39.1106C6.37498 39.2644 5.74998 40.3412 5.74998 40.9565C5.74998 41.396 6.92498 42.5607 7.82498 43.0222C8.22498 43.22 8.17498 43.4617 7.17498 46.0987C5.52498 50.34 5.24998 50.8674 4.77498 50.7135C3.89998 50.4279 1.32498 50.34 0.799981 50.5817C-0.0500196 50.9772 0.0749804 51.9661 1.04998 52.6913C1.72498 53.1967 2.02498 53.2627 2.89998 53.1748C3.49998 53.1308 4.29998 52.8451 4.77498 52.5155L5.57498 51.9661L7.44998 52.7353C10.15 53.8121 11.9 54.1856 12.925 53.878C13.675 53.6582 14.5 52.955 14.5 52.5375C14.5 52.4276 13.8 52.3617 12.925 52.3617C11.5 52.3617 8.57498 51.8343 6.92498 51.2849L6.32498 51.0871L7.19998 49.5049C7.64998 48.6479 8.44998 46.9338 8.97498 45.7032L9.87498 43.4617L11.225 43.2859C14.2 42.9123 16.25 40.8906 16.25 38.2975C16.25 36.7812 15.5 36.1 13.9 36.1C12.975 36.1 12.625 36.2318 11.925 36.8032ZM14.75 36.8691C14.95 37.0888 15.025 37.5503 14.925 38.1876C14.55 40.473 12.3 42.9123 10.525 42.9123C10.025 42.9123 10.05 42.8683 10.65 41.418C11.775 38.7809 12.575 37.3965 13.2 36.957C13.95 36.4516 14.325 36.4296 14.75 36.8691ZM4.09998 51.4827C4.47498 51.8343 3.39998 52.5814 2.52498 52.5814C1.72498 52.5814 0.599981 51.6585 0.874981 51.2409C1.09998 50.9333 3.67498 51.1091 4.09998 51.4827Z" fill="black"/>
<path d="M65.9502 36.3417C64.4752 37.0889 61.4252 42.1871 59.9002 46.4064C58.8252 49.417 58.0502 50.6257 56.7002 51.4827C54.4752 52.9111 52.6002 52.7792 52.1502 51.197C51.6752 49.5708 53.4002 46.4284 55.3002 45.4615C56.8252 44.6923 57.0752 45.3516 56.1002 47.4612C55.9002 47.8787 56.8752 47.8128 57.3502 47.3953C57.8502 46.9558 57.8502 45.7911 57.3502 45.1538C56.5002 44.077 53.6252 44.8242 52.1502 46.5163C51.8002 46.9558 51.1502 47.9227 50.7752 48.7138C49.8752 50.4499 48.4252 51.9222 47.6002 51.9222C46.7252 51.9222 46.6252 51.1091 47.2752 49.3511C48.2002 46.758 47.4502 45.3076 45.3252 45.6592C44.5752 45.7691 43.9752 46.1647 42.5252 47.4612C41.5252 48.3842 40.7502 48.9336 40.8502 48.7138C41.2252 47.5711 41.4252 46.4504 41.2502 46.2086C41.1252 46.0328 40.8002 45.9889 40.4002 46.0768C39.9252 46.1866 39.7002 46.4284 39.5002 47.1536C38.9252 49.0434 38.7002 49.4829 37.7502 50.4499C36.6752 51.5047 35.2752 52.2299 34.6502 52.0101C34.0002 51.7904 34.1752 50.34 35.0252 48.3622C35.7752 46.6481 35.8002 46.5602 35.3502 46.2745C35.1002 46.1207 34.8502 45.9889 34.7752 45.9889C34.7002 45.9889 34.0752 46.9118 33.4252 48.0545C31.9252 50.6037 30.9252 51.7025 30.1252 51.7025C29.8002 51.7025 29.4502 51.5706 29.3502 51.4387C28.9252 50.8454 29.2252 48.8676 29.9502 47.3074C30.5752 46.0328 30.6502 45.7252 30.3502 45.6153C29.7502 45.4175 29.2752 45.7252 28.8502 46.5822C27.4502 49.395 26.9002 50.2081 25.8252 51.0432C23.6002 52.7573 22.5252 51.7684 23.9002 49.2412C24.5252 48.0765 24.5502 47.9227 24.2002 47.615C23.8502 47.2854 23.6752 47.4173 22.3002 48.9995C20.4752 51.1091 19.1752 52.142 18.3752 52.142C17.8002 52.142 17.7502 52.0541 17.7502 51.0871C17.7502 49.8565 18.4252 48.516 19.7752 46.9338C21.6502 44.7363 24.0002 44.4066 24.0002 46.3624C24.0002 47.1536 24.2502 47.2634 24.8502 46.736C25.4252 46.2306 25.3502 45.8131 24.5252 45.0879C23.9752 44.6264 23.5502 44.4506 22.8752 44.4506C19.9752 44.4506 15.9502 48.3402 15.9502 51.175C15.9502 52.4716 16.5002 53.021 17.8002 53.021C18.6252 53.021 18.9752 52.8452 20.1502 51.9002C21.2002 50.9992 21.5002 50.8454 21.5002 51.175C21.5002 52.6913 23.9002 53.1308 25.6002 51.9442C26.1002 51.5926 26.7002 51.0871 26.9752 50.8015L27.4252 50.318L27.7752 51.2849C28.4502 53.1748 30.4002 53.1308 31.9252 51.197L32.6252 50.296L32.7002 51.175C32.8002 52.2299 33.0502 52.4936 34.0252 52.6694C34.9252 52.8232 36.0502 52.4496 37.2252 51.5706C37.9002 51.0871 38.0502 51.0212 37.9252 51.3508C37.7002 51.8343 38.1252 52.3617 38.7252 52.3617C38.9502 52.3617 39.7752 51.4827 40.6252 50.362C42.8002 47.4832 44.4002 46.3844 45.4002 47.1096C45.7252 47.3513 45.7752 47.637 45.6252 48.6259C45.5252 49.2852 45.4502 50.318 45.4252 50.9333C45.3752 51.9222 45.4252 52.0541 46.1002 52.3178C47.1752 52.7792 48.5002 52.3617 49.6002 51.219L50.5002 50.296V50.9553C50.5002 52.2958 51.6502 53.2407 53.2252 53.2407C54.8252 53.2187 56.3002 52.5815 57.7502 51.241L59.0002 50.0983V50.8894C59.0002 51.9222 59.4752 52.8012 60.0252 52.8012C60.3252 52.8012 60.7252 52.3397 61.2502 51.3069C63.4752 47.1316 63.7502 46.78 64.9252 46.9118C65.8252 46.9997 65.9252 47.615 65.3752 49.8126C64.7752 52.142 65.3752 52.8452 67.6502 52.4716C68.6502 52.3178 70.4252 50.8894 71.1252 49.7247C71.8252 48.538 71.4002 48.538 70.5252 49.7027C69.5502 51.0432 68.3252 51.9222 67.4252 51.9222C66.8252 51.9222 66.7502 51.8343 66.7502 51.197C66.7502 50.7795 66.9752 49.8785 67.2752 49.1533C68.1502 46.9558 67.5252 45.5494 65.7002 45.5494C64.2752 45.5494 63.0002 46.6921 61.6002 49.1533L60.4752 51.1531L60.6252 49.8345C60.9502 47.0217 61.1752 46.5822 63.0002 44.9121C65.1252 43.0002 67.0252 39.8797 67.2002 37.9679C67.2752 37.1987 67.2002 36.6494 67.0002 36.4296C66.6502 36.056 66.5252 36.0341 65.9502 36.3417ZM66.4002 38.6711C65.9252 40.4071 62.3002 45.5713 62.0502 44.8901C61.9002 44.5165 63.7002 41.1763 64.8752 39.616C66.1002 38.0118 66.6752 37.6383 66.4002 38.6711Z" fill="black"/>
<path d="M80.675 36.5616C79.25 37.2209 78.25 38.5833 78.25 39.8579C78.25 40.693 78.375 40.9786 78.8 41.2423C79.65 41.7697 79.75 41.6818 79.75 40.4292C79.775 38.1438 80.725 36.7594 82.3 36.7594C83.525 36.7594 83.75 37.1989 83.75 39.792C83.75 41.8796 83.35 43.5278 81.75 48.1646C80.225 52.6255 80.45 53.9001 82.775 53.9001C84.075 53.9001 85.15 53.3288 86.7 51.7905L87.9 50.6038L87.8 51.9004C87.7 53.109 87.725 53.2189 88.375 53.5925C90.3 54.6912 92.975 53.2409 96.05 49.3952C99.85 44.6925 101.875 38.6053 100.125 37.089C99.4 36.4297 99.225 36.4078 98.5 36.9352L97.925 37.3527L98.475 38.012C99.575 39.3085 99.35 41.55 97.725 45.066C95.975 48.9337 92.2 53.2409 90.55 53.2409C90.125 53.2409 89.75 53.109 89.675 52.9112C89.4 52.2959 90.025 49.9226 91.125 47.4394C92.3 44.8243 92.45 44.0552 91.95 43.6157C91.5 43.2201 90.75 43.286 90.75 43.7255C90.75 44.4507 89.1 47.6591 87.875 49.4172C86.225 51.7465 84.525 53.2409 83.5 53.2409C82.775 53.2409 82.75 53.2189 82.75 52.23C82.75 51.6586 83.275 49.6369 84 47.5492C85.625 42.7806 85.8 42.0115 85.8 40.0337C85.825 38.2317 85.35 37.0011 84.4 36.4297C83.675 35.9683 81.8 36.0342 80.675 36.5616Z" fill="black"/>
<path d="M105 40.6491C104.425 40.8469 103.75 41.4183 103.75 41.7259C103.75 42.6049 105.7 42.4951 106.25 41.5941C106.725 40.8249 106.025 40.3195 105 40.6491Z" fill="black"/>
<path d="M76.1255 42.5826C74.5005 43.7473 71.0255 44.1648 68.8755 43.4396C67.1255 42.8463 67.0505 42.8463 66.7505 43.3298C66.5005 43.7693 66.5755 43.8572 67.9255 44.4066C69.1755 44.912 69.6755 44.9999 71.6255 44.9779C74.0505 44.9559 75.5255 44.5604 77.2005 43.4177C78.0005 42.8903 78.0255 42.8463 77.6005 42.4508C77.0755 41.9233 77.0505 41.9233 76.1255 42.5826Z" fill="black"/>
<path d="M110.075 43.6154C109.925 43.7692 109.75 44.2307 109.65 44.6483C109.425 45.7031 108.15 47.3952 106.85 48.3181C106.275 48.7357 105.675 49.351 105.55 49.6806C105.25 50.4497 103.875 51.6364 103.1 51.7902C102 52.032 101.5 51.5925 101.5 50.3618C101.5 49.4609 101.725 48.8675 102.775 47.0875C103.95 45.1537 104.125 44.4505 103.5 44.4505C103.375 44.4505 102.95 44.7142 102.525 45.0218C101.125 46.0547 99.4502 49.9883 99.8502 51.3288C100.275 52.845 102.175 53.0428 104.225 51.8122L105.475 51.0431L105.775 51.5485C106.3 52.4495 107.075 53.0209 107.95 53.1527C109.2 53.3725 110.625 52.911 111.425 52.032C111.8 51.6144 112.425 51.2189 112.8 51.153C113.15 51.065 113.6 50.8673 113.775 50.6915C114.2 50.23 114.5 50.3179 114.5 50.9332C114.5 51.2409 114.825 51.7902 115.2 52.1638C116.625 53.5702 119.5 53.1967 121.8 51.3068C123.025 50.3179 124.15 48.9115 123.925 48.7137C123.875 48.6478 123.45 49.0213 123 49.5488C122.55 50.0762 121.875 50.7134 121.525 50.9991C119.075 52.911 116.225 52.7571 116.15 50.7354C116.125 49.9004 116.125 49.8784 117.575 49.4609C120.275 48.6917 122.05 47.3732 122.35 45.9009C122.7 44.3186 121.55 43.6813 119.55 44.3406C117.825 44.9339 116.15 46.4283 115.075 48.3841C114.425 49.5048 113.85 50.208 113.25 50.5596L112.375 51.065L112.2 49.7685C112.1 49.0433 111.8 47.7907 111.525 46.9776C111.225 46.1646 111 45.0218 111 44.4285C111 43.3297 110.625 43.0001 110.075 43.6154ZM121.25 45.3295C121.25 46.0107 120.625 46.9557 119.725 47.6149C118.875 48.2522 116.525 49.3729 116.35 49.2191C116.125 49.0213 117.65 46.7799 118.65 45.8789C119.45 45.1317 119.925 44.89 120.5 44.89C121.1 44.89 121.25 44.9779 121.25 45.3295ZM110.225 47.7028C110.525 48.9774 110.6 50.6695 110.35 50.8892C109.95 51.2409 107.5 49.5488 107.5 48.9334C107.5 48.5159 109.575 46.1865 109.775 46.3843C109.875 46.4722 110.075 47.0655 110.225 47.7028ZM109.625 51.1749C110.35 51.3288 110.375 51.4167 109.825 51.966C109.2 52.5813 107.9 52.4934 107.275 51.7902C106.775 51.2409 106.575 49.9663 106.9 49.6586C107 49.5707 107.5 49.8564 108.025 50.2739C108.55 50.6915 109.275 51.087 109.625 51.1749Z" fill="black"/>
<path d="M26.75 44.7362C26.75 44.89 26.825 45.2416 26.925 45.5273L27.075 46.0327L27.4 45.5273C27.85 44.8241 27.825 44.7362 27.25 44.6043C26.95 44.5384 26.75 44.6043 26.75 44.7362Z" fill="black"/>
<path d="M80.3502 45.3516C79.5002 46.1867 77.1752 47.3734 75.3752 47.8788C73.7752 48.3183 72.9502 48.8457 73.8252 48.8457C75.6752 48.8457 80.3002 46.6921 80.7502 45.6373C81.1002 44.8682 80.9502 44.7803 80.3502 45.3516Z" fill="black"/>
<path d="M86.45 47.9669C85.65 49.1316 85 50.1864 85 50.2963C85.025 50.5161 85.875 49.3514 87.175 47.3516C88.6 45.1321 88.025 45.6156 86.45 47.9669Z" fill="black"/>
<path d="M41.45 53.2188C40.95 53.3067 40.35 53.5264 40.125 53.6803C39.875 53.878 39.3 53.922 38.35 53.8341C37.425 53.7462 36.7 53.8121 36.125 54.0319C35.025 54.4274 34.3 54.4274 32.925 54.0099C31.925 53.7242 31.7 53.7242 30.925 54.0099C30.425 54.1857 29.725 54.3395 29.4 54.3395C28.825 54.3395 28.425 54.9548 24.95 61.064L21.125 67.7884L18.875 68.5136C17.625 68.8872 15.55 69.7003 14.25 70.2936C12.95 70.8869 11.775 71.3924 11.675 71.4363C11.55 71.4803 11.525 71.1946 11.6 70.799C12.55 65.7447 12.875 64.2724 13.5 62.6462C14.3 60.5805 15.7 58.0314 17.1 56.0976L17.975 54.8889L16.8 54.5373C15.65 54.2077 15.6 54.2077 14.975 54.7131C14.2 55.3284 12.625 59.5697 11.6 63.679C11 66.1622 9.75 72.8867 9.75 73.7218C9.75 74.0294 10.175 73.8536 11.7 72.9966C13.675 71.8539 16.6 70.5353 18.95 69.7442C20.425 69.2388 20.475 69.3047 19.875 70.799C19.525 71.678 19.6 73.0185 20 73.0185C20.1 73.0185 20.6 72.8647 21.075 72.6889C22.475 72.1835 24.2 72.2714 25.725 72.9306C27.325 73.6339 28.375 74.8205 28.775 76.4247C29.05 77.4795 29.025 77.7652 28.55 78.9958C28.275 79.765 28.1 80.4682 28.175 80.5781C28.325 80.7758 30.475 80.644 31.45 80.3803C31.85 80.2704 32 80.3143 32 80.5341C32 81.1494 29.225 85.6763 27.75 87.4783L26.275 89.2803H27.2C28.95 89.2803 37.125 88.3793 40.3 87.8299C48.85 86.3795 55.225 84.0062 59.15 80.8637L60.75 79.5672V77.7872C60.75 75.7655 60.3 73.7218 59.35 71.1946C59 70.2497 58.75 69.4366 58.775 69.4146C58.825 69.3706 59.825 68.8652 61 68.2939C64.175 66.7116 69.35 63.8988 71.625 62.5143C75.25 60.3168 81.25 55.8998 81.25 55.4383C81.25 55.3504 81 55.1966 80.7 55.0647C80.2 54.8669 79.9 55.0208 78.25 56.3832C74.525 59.4158 68.525 63.0857 61.475 66.6457C54.625 70.0958 36.7 77.6114 35.05 77.6993C34.525 77.7432 33.45 76.8422 28.725 72.4911L23.025 67.239L26.575 61.064L30.125 54.8889L35.5 54.7571C40.05 54.6472 44.875 54.2736 45.225 53.9879C45.275 53.944 45.05 53.7242 44.725 53.4825C44.1 53.021 43.125 52.9551 41.45 53.2188ZM23.975 69.8761L25.225 71.1506L23.8 71.2166C23 71.2605 22.125 71.1946 21.825 71.1067L21.325 70.9309L21.825 69.7662C22.1 69.1509 22.4 68.6235 22.525 68.6235C22.625 68.6235 23.275 69.1948 23.975 69.8761ZM57.825 71.0847C58.55 72.7109 59.225 75.4139 59.4 77.1719L59.55 78.842L58.3 79.8748C56.25 81.5669 53.075 83.1931 49.575 84.3358C47.6 84.9951 47.65 84.9511 50.65 83.1492C51.925 82.402 53.925 80.9956 55.125 80.0067L57.325 78.2047L57.175 75.9852C57.075 74.7106 56.8 73.1504 56.5 72.2934C55.975 70.843 55.975 70.7771 56.425 70.4694C57.15 69.986 57.4 70.0958 57.825 71.0847ZM55.125 72.6669C55.55 73.9415 56 76.1171 56 76.9301C56 78.0289 51.225 81.6768 47.05 83.7425C44.65 84.9511 41.2 86.2037 38.875 86.7311C36.95 87.1926 29.25 88.0277 29.25 87.786C29.25 87.742 29.6 87.2585 30.025 86.7311C30.45 86.1818 31.4 84.5776 32.15 83.1711C32.9 81.7647 33.65 80.3583 33.825 80.0726C34.05 79.6551 35.3 79.0837 39.125 77.6334C44.4 75.6336 50.1 73.3262 52.625 72.1835C53.45 71.8099 54.25 71.5022 54.425 71.4803C54.6 71.4803 54.9 72.0077 55.125 72.6669Z" fill="black"/>
<path d="M88 56.0754C88 56.6467 87.9 56.7346 87.2 56.8006C86.675 56.8445 86.375 56.9764 86.375 57.1961C86.375 57.4159 86.675 57.5477 87.2 57.5917C87.925 57.6576 88 57.7235 88 58.4267C88 59.042 88.1 59.1959 88.45 59.1299C88.725 59.086 88.9 58.8223 88.95 58.3388C89.025 57.7015 89.1 57.6356 89.9 57.6356C90.6 57.6356 90.775 57.5477 90.7 57.2401C90.65 56.9983 90.35 56.8445 89.8 56.8006C89.1 56.7346 89 56.6467 89 56.0754C89 55.5919 88.875 55.4381 88.5 55.4381C88.125 55.4381 88 55.5919 88 56.0754Z" fill="black"/>
<path d="M96.6 61.3714C96.425 61.5253 96.4 62.0087 96.525 62.7339C96.9 64.7336 96.2 66.228 94.8 66.5356C93.1 66.9092 92 68.2717 92 70.0297C92 71.4581 92.65 71.4361 92.9 69.9857C93.15 68.3816 93.55 67.8981 95.2 67.2388C97.15 66.4477 97.6 65.6566 97.45 63.2613C97.375 61.5692 97.075 60.9539 96.6 61.3714Z" fill="black"/>
<path d="M21.7501 73.6557C19.8001 74.2051 18.7001 75.1061 17.5251 77.1717C16.3751 79.1935 14.9501 83.6105 15.3501 83.9621C15.6501 84.2038 20.3001 83.3468 22.2001 82.6875C26.0251 81.369 27.7001 79.6769 27.4501 77.3695C27.1751 74.9522 24.1501 72.9964 21.7501 73.6557ZM23.8251 75.5236C25.0251 75.9631 25.5751 76.8201 25.4251 78.0068C25.2751 79.1715 24.8751 79.589 23.0501 80.4461C21.6251 81.1273 18.0251 82.1162 17.7751 81.9184C17.5251 81.6767 18.9251 78.3364 19.8001 77.1498C21.1251 75.3478 22.2001 74.9083 23.8251 75.5236Z" fill="black"/>
<path d="M62.675 84.1381C62.575 84.226 62.5 84.7315 62.5 85.2589V86.2038H61.25C59.525 86.2038 59.525 86.7532 61.225 86.951L62.475 87.1048L62.55 88.1376C62.65 89.4122 63.05 89.4122 63.325 88.1156C63.525 87.1707 63.6 87.1268 64.55 87.0169C65.1 86.951 65.6 86.8411 65.675 86.7971C66 86.5115 65.375 86.2038 64.5 86.2038H63.525L63.45 85.171C63.375 84.204 63.075 83.8085 62.675 84.1381Z" fill="black"/>
</g>
<defs>
<clipPath id="clip0_547_112">
<rect width="124" height="89" fill="white" transform="translate(0 0.5)"/>
</clipPath>
</defs>
</svg>
