<svg width="15" height="15" viewBox="0 0 15 15" fill="none" xmlns="http://www.w3.org/2000/svg">
<g clip-path="url(#clip0_200_98)">
<path d="M5.56117 5.74732C5.70342 5.34296 5.98418 5.00198 6.35374 4.78479C6.72329 4.5676 7.15779 4.48821 7.58027 4.56067C8.00276 4.63314 8.38596 4.85279 8.66201 5.18072C8.93807 5.50865 9.08915 5.9237 9.08852 6.35235C9.08852 7.56242 7.27342 8.16745 7.27342 8.16745M7.32182 10.5876H7.32787M13.3722 7.56242C13.3722 10.9039 10.6633 13.6128 7.32182 13.6128C3.98031 13.6128 1.27148 10.9039 1.27148 7.56242C1.27148 4.22091 3.98031 1.51208 7.32182 1.51208C10.6633 1.51208 13.3722 4.22091 13.3722 7.56242Z" stroke="#98A2B3" stroke-width="1.21007" stroke-linecap="round" stroke-linejoin="round"/>
</g>
<defs>
<clipPath id="clip0_200_98">
<rect width="14.5208" height="14.5208" fill="white" transform="translate(0.0615234 0.302002)"/>
</clipPath>
</defs>
</svg>
