<svg width="16" height="16" viewBox="0 0 16 16" fill="none" xmlns="http://www.w3.org/2000/svg">
<path d="M6.97914 6.26209C7.12139 5.85773 7.40215 5.51675 7.77171 5.29956C8.14126 5.08237 8.57576 5.00298 8.99824 5.07544C9.42073 5.14791 9.80393 5.36756 10.08 5.69549C10.356 6.02342 10.5071 6.43847 10.5065 6.86712C10.5065 8.07719 8.69138 8.68222 8.69138 8.68222M8.73979 11.1024H8.74584M14.7901 8.07719C14.7901 11.4187 12.0813 14.1275 8.73979 14.1275C5.39828 14.1275 2.68945 11.4187 2.68945 8.07719C2.68945 4.73568 5.39828 2.02686 8.73979 2.02686C12.0813 2.02686 14.7901 4.73568 14.7901 8.07719Z" stroke="#98A2B3" stroke-width="1.21007" stroke-linecap="round" stroke-linejoin="round"/>
</svg>
