<svg width="10" height="11" viewBox="0 0 10 11" fill="none" xmlns="http://www.w3.org/2000/svg">
<g clip-path="url(#clip0_286_905)">
<path d="M3.61157 4.075C3.70455 3.81069 3.88807 3.58781 4.12963 3.44585C4.37119 3.30388 4.6552 3.25198 4.93136 3.29935C5.20752 3.34672 5.458 3.49029 5.63844 3.70465C5.81888 3.919 5.91764 4.19029 5.91722 4.47048C5.91722 5.26144 4.73078 5.65692 4.73078 5.65692M4.76242 7.23884H4.76637M8.71722 5.26144C8.71722 7.44562 6.9466 9.21625 4.76242 9.21625C2.57824 9.21625 0.807617 7.44562 0.807617 5.26144C0.807617 3.07727 2.57824 1.30664 4.76242 1.30664C6.9466 1.30664 8.71722 3.07727 8.71722 5.26144Z" stroke="#98A2B3" stroke-width="0.79096" stroke-linecap="round" stroke-linejoin="round"/>
</g>
<defs>
<clipPath id="clip0_286_905">
<rect width="9.49153" height="9.49153" fill="white" transform="translate(0.0166016 0.516113)"/>
</clipPath>
</defs>
</svg>
