<svg width="11" height="10" viewBox="0 0 11 10" fill="none" xmlns="http://www.w3.org/2000/svg">
<g clip-path="url(#clip0_286_931)">
<path d="M4.3938 3.61748C4.48678 3.35317 4.6703 3.13029 4.91186 2.98833C5.15342 2.84636 5.43743 2.79446 5.71359 2.84183C5.98974 2.8892 6.24022 3.03277 6.42067 3.24713C6.60111 3.46148 6.69987 3.73277 6.69945 4.01296C6.69945 4.80392 5.51301 5.1994 5.51301 5.1994M5.54465 6.78132H5.5486M9.49945 4.80392C9.49945 6.9881 7.72882 8.75873 5.54465 8.75873C3.36047 8.75873 1.58984 6.9881 1.58984 4.80392C1.58984 2.61975 3.36047 0.849121 5.54465 0.849121C7.72882 0.849121 9.49945 2.61975 9.49945 4.80392Z" stroke="#98A2B3" stroke-width="0.79096" stroke-linecap="round" stroke-linejoin="round"/>
</g>
<defs>
<clipPath id="clip0_286_931">
<rect width="9.49153" height="9.49153" fill="white" transform="translate(0.798828 0.0585938)"/>
</clipPath>
</defs>
</svg>
