<svg width="16" height="15" viewBox="0 0 16 15" fill="none" xmlns="http://www.w3.org/2000/svg">
<g clip-path="url(#clip0_200_124)">
<path d="M6.97914 5.7027C7.12139 5.29834 7.40215 4.95737 7.77171 4.74017C8.14126 4.52298 8.57576 4.44359 8.99824 4.51606C9.42073 4.58852 9.80393 4.80817 10.08 5.13611C10.356 5.46404 10.5071 5.87908 10.5065 6.30774C10.5065 7.5178 8.69138 8.12284 8.69138 8.12284M8.73979 10.543H8.74584M14.7901 7.5178C14.7901 10.8593 12.0813 13.5681 8.73979 13.5681C5.39828 13.5681 2.68945 10.8593 2.68945 7.5178C2.68945 4.17629 5.39828 1.46747 8.73979 1.46747C12.0813 1.46747 14.7901 4.17629 14.7901 7.5178Z" stroke="#98A2B3" stroke-width="1.21007" stroke-linecap="round" stroke-linejoin="round"/>
</g>
<defs>
<clipPath id="clip0_200_124">
<rect width="14.5208" height="14.5208" fill="white" transform="translate(1.47949 0.257385)"/>
</clipPath>
</defs>
</svg>
