<svg width="11" height="10" viewBox="0 0 11 10" fill="none" xmlns="http://www.w3.org/2000/svg">
<g clip-path="url(#clip0_286_943)">
<path d="M4.3938 3.78838C4.48678 3.52407 4.6703 3.30119 4.91186 3.15922C5.15342 3.01726 5.43743 2.96536 5.71359 3.01273C5.98974 3.0601 6.24022 3.20367 6.42067 3.41803C6.60111 3.63238 6.69987 3.90367 6.69945 4.18386C6.69945 4.97482 5.51301 5.3703 5.51301 5.3703M5.54465 6.95222H5.5486M9.49945 4.97482C9.49945 7.159 7.72882 8.92962 5.54465 8.92962C3.36047 8.92962 1.58984 7.159 1.58984 4.97482C1.58984 2.79064 3.36047 1.02002 5.54465 1.02002C7.72882 1.02002 9.49945 2.79064 9.49945 4.97482Z" stroke="#98A2B3" stroke-width="0.79096" stroke-linecap="round" stroke-linejoin="round"/>
</g>
<defs>
<clipPath id="clip0_286_943">
<rect width="9.49153" height="9.49153" fill="white" transform="translate(0.798828 0.229004)"/>
</clipPath>
</defs>
</svg>
