<svg width="10" height="10" viewBox="0 0 10 10" fill="none" xmlns="http://www.w3.org/2000/svg">
<g clip-path="url(#clip0_286_957)">
<path d="M3.61157 3.5501C3.70455 3.28579 3.88807 3.06291 4.12963 2.92094C4.37119 2.77898 4.6552 2.72708 4.93136 2.77445C5.20752 2.82182 5.458 2.96539 5.63844 3.17974C5.81888 3.3941 5.91764 3.66539 5.91722 3.94558C5.91722 4.73654 4.73078 5.13202 4.73078 5.13202M4.76242 6.71394H4.76637M8.71722 4.73654C8.71722 6.92072 6.9466 8.69134 4.76242 8.69134C2.57824 8.69134 0.807617 6.92072 0.807617 4.73654C0.807617 2.55236 2.57824 0.781738 4.76242 0.781738C6.9466 0.781738 8.71722 2.55236 8.71722 4.73654Z" stroke="#98A2B3" stroke-width="0.79096" stroke-linecap="round" stroke-linejoin="round"/>
</g>
<defs>
<clipPath id="clip0_286_957">
<rect width="9.49153" height="9.49153" fill="white" transform="translate(0.0166016 -0.00878906)"/>
</clipPath>
</defs>
</svg>
