<svg width="29" height="29" viewBox="0 0 29 29" fill="none" xmlns="http://www.w3.org/2000/svg">
<g clip-path="url(#clip0_286_1010)">
<path d="M14.3176 0.996555C12.4519 0.996555 11.2231 1.00104 10.6311 1.01001C10.039 1.01898 9.37528 1.05037 8.63976 1.10419C7.90424 1.12213 7.27187 1.18941 6.74265 1.30601C6.21343 1.42262 5.73355 1.56165 5.303 1.72311C4.3522 2.0819 3.53146 2.60663 2.84079 3.29731C2.15012 3.98798 1.62538 4.79078 1.26659 5.7057V5.75952C1.06926 6.26182 0.91677 6.79104 0.809133 7.34717C0.701495 7.9033 0.638707 8.48633 0.620767 9.09628C0.584888 9.8318 0.562464 10.4956 0.553494 11.0876C0.544524 11.6796 0.540039 12.9084 0.540039 14.7742C0.540039 16.6399 0.544524 17.8732 0.553494 18.4742C0.562464 19.0752 0.584888 19.7434 0.620767 20.4789C0.656646 21.1965 0.728405 21.8199 0.836042 22.3491C0.94368 22.8784 1.0872 23.3672 1.26659 23.8157C1.60744 24.7486 2.12769 25.5648 2.82734 26.2645C3.52698 26.9641 4.33426 27.4844 5.24918 27.8252H5.303C5.73355 28.0046 6.21343 28.1481 6.74265 28.2558C7.27187 28.3634 7.90424 28.4352 8.63976 28.471C9.37528 28.5069 10.039 28.5293 10.6311 28.5383C11.2231 28.5473 12.4519 28.5518 14.3176 28.5518C16.1834 28.5518 17.4122 28.5518 18.0042 28.5518C18.5962 28.5518 19.26 28.5248 19.9955 28.471C20.6055 28.4531 21.193 28.3903 21.7581 28.2827C22.3232 28.175 22.8748 28.0225 23.413 27.8252H23.3323C24.2831 27.4844 25.1038 26.9641 25.7945 26.2645C26.4852 25.5648 27.0099 24.7575 27.3687 23.8426V23.8157C27.5481 23.3852 27.6916 22.9008 27.7992 22.3626C27.9069 21.8244 27.9786 21.1965 28.0145 20.4789C28.0504 19.7434 28.0728 19.0752 28.0818 18.4742C28.0908 17.8732 28.0952 16.6399 28.0952 14.7742C28.0952 12.9084 28.0908 11.6796 28.0818 11.0876C28.0728 10.4956 28.0504 9.8318 28.0145 9.09628C27.9966 8.50427 27.9338 7.92124 27.8261 7.34717C27.7185 6.7731 27.5571 6.21697 27.3418 5.67879L27.3687 5.75952C27.0278 4.82666 26.5076 4.01041 25.8079 3.31076C25.1083 2.61112 24.301 2.09087 23.3861 1.75002L23.3323 1.72311C22.8479 1.54371 22.3232 1.39571 21.7581 1.2791C21.193 1.1625 20.6144 1.10419 20.0224 1.10419H19.9955C19.26 1.05037 18.5962 1.01898 18.0042 1.01001C17.4122 1.00104 16.1834 0.996555 14.3176 0.996555ZM14.3176 3.47222C16.1654 3.47222 17.3719 3.48119 17.937 3.49913C18.502 3.51707 19.1524 3.54398 19.8879 3.57985C20.5516 3.5978 21.0809 3.6561 21.4755 3.75477C21.8702 3.85343 22.1931 3.94762 22.4443 4.03732C22.7672 4.16289 23.0542 4.30641 23.3054 4.46786C23.5565 4.62932 23.7987 4.82666 24.0319 5.05987C24.2651 5.31103 24.4625 5.5577 24.6239 5.79988C24.7854 6.04206 24.9289 6.32461 25.0545 6.64752C25.1442 6.89868 25.2384 7.22159 25.337 7.61626C25.4357 8.01093 25.503 8.54912 25.5389 9.23083C25.5747 9.94841 25.5972 10.5942 25.6061 11.1683C25.6151 11.7424 25.6196 12.9443 25.6196 14.7742C25.6196 16.6219 25.6151 17.8329 25.6061 18.4069C25.5972 18.981 25.5747 19.6268 25.5389 20.3444C25.503 21.0082 25.4402 21.5374 25.3505 21.9321C25.2608 22.3267 25.1621 22.6496 25.0545 22.9008C24.9289 23.2237 24.7854 23.5107 24.6239 23.7619C24.4625 24.013 24.2651 24.2552 24.0319 24.4884C23.7987 24.7396 23.5565 24.9414 23.3054 25.0939C23.0542 25.2464 22.7672 25.3944 22.4443 25.5379C22.2111 25.6097 21.8971 25.6994 21.5024 25.807C21.1078 25.9146 20.5696 25.9774 19.8879 25.9954C19.1524 26.0312 18.4976 26.0537 17.9235 26.0626C17.3494 26.0716 16.1475 26.0761 14.3176 26.0761C12.4699 26.0761 11.2634 26.0716 10.6983 26.0626C10.1332 26.0537 9.48292 26.0312 8.7474 25.9954C8.29891 25.9954 7.8549 25.955 7.41538 25.8743C6.97587 25.7935 6.5498 25.6725 6.13719 25.511L6.19101 25.5379C5.88604 25.4123 5.599 25.2643 5.32991 25.0939C5.06081 24.9235 4.81863 24.7217 4.60335 24.4884C4.38808 24.2732 4.19074 24.0355 4.01135 23.7753C3.83195 23.5152 3.68844 23.2416 3.5808 22.9546V22.9008C3.4911 22.6676 3.39692 22.3536 3.29825 21.959C3.19958 21.5643 3.13231 21.0261 3.09643 20.3444C3.06055 19.6268 3.03813 18.981 3.02916 18.4069C3.02019 17.8329 3.0157 16.6219 3.0157 14.7742C3.0157 12.9443 3.02019 11.7424 3.02916 11.1683C3.03813 10.5942 3.06055 9.94841 3.09643 9.23083C3.13231 8.54912 3.1951 8.01093 3.2848 7.61626C3.37449 7.22159 3.47316 6.89868 3.5808 6.64752C3.70638 6.32461 3.84989 6.04206 4.01135 5.79988C4.17281 5.5577 4.37014 5.31103 4.60335 5.05987C4.83657 4.82666 5.07875 4.62932 5.32991 4.46786C5.58106 4.30641 5.8681 4.16289 6.19101 4.03732C6.42422 3.94762 6.73817 3.85343 7.13284 3.75477C7.52751 3.6561 8.06569 3.5978 8.7474 3.57985C9.48292 3.54398 10.1377 3.51707 10.7118 3.49913C11.2859 3.48119 12.4878 3.47222 14.3176 3.47222ZM14.3176 19.3757C13.0439 19.3757 11.9586 18.9272 11.0616 18.0302C10.1646 17.1332 9.71614 16.0479 9.71614 14.7742C9.71614 13.5184 10.1646 12.4375 11.0616 11.5316C11.9586 10.6256 13.0439 10.1727 14.3176 10.1727C15.5914 10.1727 16.6767 10.6256 17.5737 11.5316C18.4707 12.4375 18.9191 13.5184 18.9191 14.7742C18.9191 16.0479 18.4707 17.1332 17.5737 18.0302C16.6767 18.9272 15.5914 19.3757 14.3176 19.3757ZM14.3176 7.69699C13.3489 7.69699 12.434 7.88536 11.5729 8.26209C10.7118 8.63882 9.95832 9.14561 9.3125 9.78247C8.66667 10.4193 8.16436 11.1683 7.80557 12.0294C7.42884 12.8905 7.24047 13.8054 7.24047 14.7742C7.24047 15.7608 7.42884 16.6847 7.80557 17.5458C8.16436 18.4069 8.66667 19.1559 9.3125 19.7928C9.95832 20.4296 10.7118 20.9364 11.5729 21.3131C12.434 21.6719 13.3489 21.8513 14.3176 21.8513C15.2864 21.8513 16.2013 21.6719 17.0624 21.3131C17.9235 20.9364 18.677 20.4296 19.3228 19.7928C19.9686 19.1559 20.4709 18.4069 20.8297 17.5458C21.2064 16.6847 21.3948 15.7608 21.3948 14.7742C21.3948 13.8054 21.2064 12.8905 20.8297 12.0294C20.4709 11.1683 19.9686 10.4193 19.3228 9.78247C18.677 9.14561 17.9235 8.63882 17.0624 8.26209C16.2013 7.88536 15.2864 7.69699 14.3176 7.69699ZM23.3323 7.4279C23.3323 7.89433 23.1708 8.28451 22.8479 8.59845C22.525 8.9124 22.1303 9.06937 21.6639 9.06937C21.2154 9.06937 20.8297 8.9124 20.5068 8.59845C20.1839 8.28451 20.0224 7.89433 20.0224 7.4279C20.0224 6.97941 20.1839 6.59371 20.5068 6.27079C20.8297 5.94788 21.2154 5.78642 21.6639 5.78642C22.1303 5.78642 22.525 5.94788 22.8479 6.27079C23.1708 6.59371 23.3323 6.97941 23.3323 7.4279Z" fill="black"/>
</g>
<defs>
<clipPath id="clip0_286_1010">
<rect width="27.5552" height="27.5552" fill="white" transform="matrix(1 0 0 -1 0.540039 28.2773)"/>
</clipPath>
</defs>
</svg>
