<svg width="24" height="25" viewBox="0 0 24 25" fill="none" xmlns="http://www.w3.org/2000/svg">
<g clip-path="url(#clip0_286_1001)">
<path d="M13.1703 22.2098H13.1103C12.8902 22.1965 12.6807 22.1109 12.5143 21.9662C12.3479 21.8215 12.234 21.6259 12.1903 21.4098L10.6503 13.8398C10.6111 13.6476 10.5163 13.4712 10.3776 13.3325C10.2389 13.1938 10.0625 13.099 9.87032 13.0598L2.30032 11.5198C2.08379 11.4768 1.88757 11.3633 1.74227 11.1971C1.59697 11.0309 1.51074 10.8213 1.49705 10.601C1.48335 10.3807 1.54294 10.162 1.66654 9.97907C1.79013 9.79615 1.97078 9.65927 2.18032 9.58978L18.1803 4.25978C18.3599 4.18562 18.5572 4.16539 18.7481 4.20156C18.939 4.23774 19.1153 4.32874 19.2553 4.46346C19.3953 4.59818 19.4931 4.77077 19.5366 4.96014C19.5801 5.14951 19.5675 5.34745 19.5003 5.52978L14.1703 21.5298C14.1007 21.7368 13.9653 21.9153 13.7847 22.0381C13.6042 22.1608 13.3884 22.2212 13.1703 22.2098Z" fill="black"/>
</g>
<defs>
<clipPath id="clip0_286_1001">
<rect width="24" height="24" fill="white" transform="translate(0 0.5)"/>
</clipPath>
</defs>
</svg>
