<svg width="19" height="19" viewBox="0 0 19 19" fill="none" xmlns="http://www.w3.org/2000/svg">
<path fill-rule="evenodd" clip-rule="evenodd" d="M6.0141 8.03123L4.74336 9.30198L8.82818 13.3868L17.9056 4.30941L16.6348 3.03867L8.82818 10.7997L6.0141 8.03123ZM16.9975 9.75586C16.9975 13.7498 13.7295 17.0178 9.73559 17.0178C5.74167 17.0178 2.47368 13.7498 2.47368 9.75586C2.47368 5.76189 5.74163 2.49394 9.73559 2.49394C10.4164 2.49394 11.0972 2.58481 11.7328 2.76631L13.1396 1.35927C12.0958 0.905402 10.9611 0.678467 9.73559 0.678467C4.74303 0.678467 0.658203 4.76329 0.658203 9.75586C0.658203 14.7484 4.74303 18.8332 9.73559 18.8332C14.7282 18.8332 18.813 14.7484 18.813 9.75586H16.9975Z" fill="#2196F3"/>
</svg>
