<svg width="19" height="19" viewBox="0 0 19 19" fill="none" xmlns="http://www.w3.org/2000/svg">
<path fill-rule="evenodd" clip-rule="evenodd" d="M9.56618 6.29883C7.78296 6.29883 6.32422 7.75769 6.32422 9.54075C6.32422 11.324 7.78296 12.7827 9.56618 12.7827C11.3494 12.7827 12.8081 11.324 12.8081 9.54075C12.8081 7.75769 11.3494 6.29883 9.56618 6.29883ZM17.3042 8.67627C16.915 5.08863 14.0188 2.19242 10.4311 1.80343V0.463379H8.70215V1.80339C5.11451 2.19238 2.2183 5.08859 1.8291 8.67623H0.489258V10.4053H1.82906C2.21826 13.9929 5.11443 16.8891 8.70211 17.2783V18.6182H10.4311V17.2784C14.0187 16.8892 16.915 13.9929 17.3042 10.4053H18.644V8.67627H17.3042ZM9.56724 15.5923C6.23872 15.5923 3.51562 12.8692 3.51562 9.54072C3.51562 6.21223 6.23872 3.48914 9.56724 3.48914C12.8957 3.48914 15.6188 6.21227 15.6188 9.54072C15.6188 12.8692 12.8957 15.5923 9.56724 15.5923Z" fill="#00BCD4"/>
</svg>
