<svg width="19" height="20" viewBox="0 0 19 20" fill="none" xmlns="http://www.w3.org/2000/svg">
<path fill-rule="evenodd" clip-rule="evenodd" d="M9.56686 6.56638C10.6002 6.56638 11.5755 6.97263 12.3132 7.71033C13.0509 8.44799 13.4572 9.42336 13.4572 10.4567C13.4572 11.1708 13.278 11.8358 12.9245 12.4332C12.5866 13.0045 12.0963 13.4883 11.5068 13.8323L10.8636 14.2076V14.9523V17.8266H8.27009V14.9523V14.2076L7.62693 13.8323C6.42389 13.1303 5.67655 11.8368 5.67655 10.4567C5.67655 9.42336 6.0828 8.44803 6.8205 7.71033C7.5582 6.97263 8.53354 6.56638 9.56686 6.56638ZM10.431 0.968506C10.1718 0.968506 8.70203 0.968506 8.70203 0.968506V3.56205H10.431V0.968506ZM15.6613 3.15127L14.1053 4.70768L15.3156 5.91793L16.8719 4.36197L15.6613 3.15127ZM3.4721 3.15127L2.26145 4.36193L3.81781 5.91789L5.02807 4.70768L3.4721 3.15127ZM9.56684 5.26953C6.71411 5.26953 4.37976 7.60388 4.37976 10.4566C4.37976 12.3587 5.41734 14.0442 6.9733 14.9523V19.1232H12.1604V14.9522C13.7163 14.0442 14.7539 12.4017 14.7539 10.4566C14.7539 7.60384 12.4196 5.26953 9.56684 5.26953ZM18.6442 9.59216H16.0507V11.3212H18.6442V9.59216ZM3.0828 9.59217H0.489258V11.3212H3.0828V9.59217Z" fill="#F38D21"/>
</svg>
