<svg width="156" height="31" viewBox="0 0 156 31" fill="none" xmlns="http://www.w3.org/2000/svg">
<g clip-path="url(#clip0_559_301)">
<path d="M12.1246 10.1408L12.2788 10.7191L11.5848 11.1818C11.045 11.5674 10.7365 12.0301 10.7365 12.5699C10.7365 13.0326 10.8907 13.5339 11.1606 14.3822L14.1296 23.7132L16.8287 16.3486L15.9418 13.958C15.402 12.4543 14.8237 11.4903 13.9368 10.7191L14.0911 10.1408C17.677 10.3721 20.9158 10.3721 24.5017 10.1408L24.656 10.7191L23.8463 11.2204C23.3064 11.5674 23.0751 11.9144 23.0751 12.4928C23.0751 12.9555 23.2293 13.4953 23.4992 14.305L26.5839 23.7132L29.0516 17.1969C29.3601 16.3486 29.4757 15.7317 29.4757 14.9991C29.4757 13.5724 28.6275 12.2229 26.8152 10.7191L26.9695 10.1408C29.5528 10.3336 32.1362 10.3336 34.7196 10.1408L34.8739 10.7191C33.1773 12.2615 32.1362 13.8424 30.9795 16.8499L25.8127 30.3452C24.5403 30.2681 23.2293 30.2681 21.9569 30.3452L17.677 18.7392L13.4356 30.3452C12.1246 30.2681 10.7365 30.2681 9.42554 30.3452L3.21768 14.1123C2.40796 12.0301 1.98383 11.4903 0.672852 10.7191L0.827084 10.1408C4.64433 10.3721 8.30735 10.3721 12.1246 10.1408ZM44.4748 30.9621C37.8428 30.9621 33.64 26.7207 33.64 20.2815C33.64 13.8424 38.1127 9.60096 44.5905 9.60096C50.6056 9.60096 54.7698 13.1097 55.3868 18.932H41.4673C41.6986 23.7518 43.9736 25.7954 48.0222 25.7954C50.4128 25.7954 52.6877 25.0242 54.4614 23.6747L55.0397 24.0988C53.3817 28.3402 49.4103 30.9621 44.4748 30.9621ZM41.4287 17.4283H48.0222C47.7137 12.5699 46.4027 11.0276 44.6291 11.0276C42.6626 11.0276 41.5059 12.917 41.4287 17.4283ZM65.9517 10.1408L66.1059 10.7191L65.4119 11.1818C64.872 11.5674 64.5636 12.0301 64.5636 12.5699C64.5636 13.0326 64.7178 13.5339 64.9877 14.3822L67.9567 23.7132L70.6558 16.3486L69.7689 13.958C69.2291 12.4543 68.6507 11.4903 67.7639 10.7191L67.9181 10.1408C71.504 10.3721 74.7429 10.3721 78.3288 10.1408L78.483 10.7191L77.6733 11.2204C77.1335 11.5674 76.9022 11.9144 76.9022 12.4928C76.9022 12.9555 77.0564 13.4953 77.3263 14.305L80.4109 23.7132L82.8787 17.1969C83.1871 16.3486 83.3028 15.7317 83.3028 14.9991C83.3028 13.5724 82.4545 12.2229 80.6423 10.7191L80.7965 10.1408C83.3799 10.3336 85.9633 10.3336 88.5467 10.1408L88.7009 10.7191C87.0044 12.2615 85.9633 13.8424 84.8066 16.8499L79.6398 30.3452C78.3674 30.2681 77.0564 30.2681 75.784 30.3452L71.504 18.7392L67.2626 30.3452C65.9517 30.2681 64.5636 30.2681 63.2526 30.3452L57.0448 14.1123C56.235 12.0301 55.8109 11.4903 54.4999 10.7191L54.6542 10.1408C58.4714 10.3721 62.1344 10.3721 65.9517 10.1408ZM99.0345 9.60096C105.744 9.60096 110.602 13.8424 110.602 20.2815C110.602 26.7207 105.666 30.9621 98.9574 30.9621C92.2483 30.9621 87.39 26.7207 87.39 20.2815C87.39 13.8424 92.3254 9.60096 99.0345 9.60096ZM95.4486 19.5104C95.4486 25.9881 96.6053 29.4584 99.1887 29.4584C101.271 29.4584 102.543 27.7618 102.543 21.0527C102.543 14.3436 101.387 11.1047 98.8032 11.1047C96.721 11.1047 95.4486 12.8013 95.4486 19.5104ZM111.026 30.3838L110.872 29.8054L112.376 28.9957C113.455 28.4173 113.725 27.916 113.725 26.6051V15.4618C113.725 13.7652 113.532 13.3411 112.376 12.7627L110.949 12.0687V11.4903L112.915 11.2204C115.614 10.8348 118.391 10.2564 120.55 9.67808L120.743 9.83231V15.1148C121.707 11.3361 123.866 9.5624 126.411 9.5624C128.647 9.5624 130.112 10.9891 130.112 12.917C130.112 14.8449 128.763 16.1173 126.951 16.1173C125.293 16.1173 124.444 15.269 123.172 15.269C121.784 15.269 120.743 16.0402 120.743 18.9706V26.6436C120.743 27.9546 121.013 28.4559 122.131 28.9957L123.75 29.8054L123.596 30.3838C119.432 30.1524 115.19 30.1524 111.026 30.3838ZM139.212 19.7417L144.186 15.5003C145.189 14.6135 145.574 14.1123 145.574 13.4953C145.574 12.8784 145.227 12.4157 144.07 11.606L142.759 10.7191L142.914 10.1408C146.461 10.3721 150.24 10.3721 153.787 10.1408L153.941 10.7191C151.743 11.7217 150.163 12.6856 148.157 14.3436L145.189 16.8113L152.939 27.6076C153.71 28.6487 154.442 29.227 155.599 29.8054L155.445 30.3838C151.666 30.1524 147.386 30.1524 143.608 30.3838L143.453 29.8054C144.919 29.227 145.266 28.9186 145.266 28.4173C145.266 28.0703 145.111 27.8004 144.726 27.222L140.253 20.8985L139.135 21.8239V26.6436C139.135 27.9546 139.405 28.4559 140.523 29.1499L141.603 29.8054L141.448 30.3838C137.67 30.1524 133.351 30.1524 129.572 30.3838L129.418 29.8054L130.922 28.9957C132.002 28.4173 132.272 27.916 132.272 26.6051V5.78371C132.272 4.08716 132.079 3.66302 130.922 3.08465L129.495 2.3906V1.81223L131.462 1.54232C134.161 1.15674 136.899 0.578371 139.019 0L139.212 0.154232V19.7417Z" fill="#737373"/>
</g>
<defs>
<clipPath id="clip0_559_301">
<rect width="154.926" height="30.9621" fill="white" transform="translate(0.672852)"/>
</clipPath>
</defs>
</svg>
